<?xml version="1.0" encoding="UTF-8" standalone="no"?>
<!DOCTYPE svg PUBLIC "-//W3C//DTD SVG 1.1//EN" "http://www.w3.org/Graphics/SVG/1.1/DTD/svg11.dtd">
<svg version="1.1" xmlns="http://www.w3.org/2000/svg" xmlns:xlink="http://www.w3.org/1999/xlink" preserveAspectRatio="xMidYMid meet" viewBox="0 0 640 640" width="640" height="640"><defs><path d="M0 0L640 0L640 640L0 640L0 0Z" id="b7fGM1L0I"></path><path d="M507.24 390.14C507.24 474.47 427.2 542.83 328.47 542.83C229.73 542.83 149.69 474.47 149.69 390.14C149.69 305.81 229.73 237.45 328.47 108.87C427.2 237.45 507.24 305.81 507.24 390.14Z" id="a5gx8ApTw"></path><path d="M488.37 221.67C488.37 130.2 418.05 56.04 331.3 56.04C244.55 56.04 174.22 130.2 174.22 221.67C174.22 313.15 244.55 387.31 331.3 526.79C418.05 387.31 488.37 313.15 488.37 221.67Z" id="abzVGRfPq"></path><path d="M303.71 159.81C303.71 176.47 289.98 190 273.05 190C256.13 190 242.39 176.47 242.39 159.81C242.39 143.15 256.13 129.62 273.05 129.62C289.98 129.62 303.71 143.15 303.71 159.81Z" id="diMnMLBV3"></path><path d="M436.73 156.04C436.73 177.39 418.34 194.72 395.7 194.72C373.05 194.72 354.66 177.39 354.66 156.04C354.66 134.69 373.05 117.36 395.7 117.36C418.34 117.36 436.73 134.69 436.73 156.04Z" id="a1vYZwTlFO"></path></defs><g visibility="inherit"><g visibility="inherit"><g visibility="inherit"><use xlink:href="#b7fGM1L0I" opacity="1" fill="#0033ff" fill-opacity="1"></use></g><g visibility="inherit"><use xlink:href="#a5gx8ApTw" opacity="1" fill="#ffffff" fill-opacity="1"></use></g><g visibility="inherit"><use xlink:href="#abzVGRfPq" opacity="1" fill="#ffffff" fill-opacity="1"></use></g><g visibility="inherit"><g><filter id="shadow1918370" x="233.39" y="120.62" width="80.32" height="79.38" filterUnits="userSpaceOnUse" primitiveUnits="userSpaceOnUse"><feFlood></feFlood><feComposite in2="SourceAlpha" operator="in"></feComposite><feGaussianBlur stdDeviation="1"></feGaussianBlur><feOffset dx="1" dy="1" result="afterOffset"></feOffset><feFlood flood-color="#000000" flood-opacity="0.5"></feFlood><feComposite in2="afterOffset" operator="in"></feComposite><feMorphology operator="dilate" radius="1"></feMorphology><feComposite in2="SourceAlpha" operator="out"></feComposite></filter><path d="M303.71 159.81C303.71 176.47 289.98 190 273.05 190C256.13 190 242.39 176.47 242.39 159.81C242.39 143.15 256.13 129.62 273.05 129.62C289.98 129.62 303.71 143.15 303.71 159.81Z" id="a1Chfd776g" fill="white" fill-opacity="1" filter="url(#shadow1918370)"></path></g><use xlink:href="#diMnMLBV3" opacity="1" fill="#000000" fill-opacity="1"></use></g><g visibility="inherit"><use xlink:href="#a1vYZwTlFO" opacity="1" fill="#000000" fill-opacity="1"></use></g></g></g></svg>